<?xml version="1.0" encoding="utf-8"?>
<!-- Generator: Adobe Illustrator 16.0.0, SVG Export Plug-In . SVG Version: 6.00 Build 0)  -->
<!DOCTYPE svg PUBLIC "-//W3C//DTD SVG 1.1//EN" "http://www.w3.org/Graphics/SVG/1.1/DTD/svg11.dtd">
<svg version="1.1" id="Layer_1" xmlns="http://www.w3.org/2000/svg" xmlns:xlink="http://www.w3.org/1999/xlink" x="0px" y="0px"
	 width="358.443px" height="332.716px" viewBox="0 0 358.443 332.716" enable-background="new 0 0 358.443 332.716"
	 xml:space="preserve">
<g>
	<path fill-rule="evenodd" clip-rule="evenodd" fill="#E74125" d="M18.895,31.103c0-1.46,0-2.922,0-4.383
		c3.733-8.856,9.661-11.281,18.121-7.376c97.497,45.002,194.984,90.024,292.51,134.968c4.546,2.093,8.378,4.588,10.021,9.56
		c0,1.673,0,3.341,0,5.014c-1.563,4.719-5.121,7.284-9.465,9.296c-80.145,36.93-160.253,73.912-240.37,110.877
		c-17.858,8.244-35.708,16.499-53.584,24.696c-6.21,2.847-12.104,1.346-15.402-3.809c-0.768-1.207-1.229-2.602-1.83-3.905
		c0-1.674,0-3.346,0-5.008c1.167-1.939,2.179-3.99,3.525-5.791c31.548-42.134,63.117-84.249,94.751-126.322
		c1.423-1.889,1.574-3.048,0.077-5.038C86.657,123.244,56.14,82.555,25.678,41.819C23.152,38.444,21.142,34.683,18.895,31.103z"/>
</g>
</svg>
